<svg xmlns="http://www.w3.org/2000/svg" x="0px" y="0px" width="100" height="100" viewBox="0,0,256,256">
<g fill="#6f6f6f" fill-rule="nonzero" stroke="none" stroke-width="1" stroke-linecap="butt" stroke-linejoin="miter" stroke-miterlimit="10" stroke-dasharray="" stroke-dashoffset="0" font-family="none" font-weight="none" font-size="none" text-anchor="none" style="mix-blend-mode: normal"><g transform="scale(10.66667,10.66667)"><path d="M11.96484,2c-0.07723,0.00554 -0.15211,0.02895 -0.21875,0.06836l-9.5,5.58789c-0.15424,0.0907 -0.24836,0.2568 -0.24692,0.43572c0.00145,0.17892 0.09824,0.34348 0.25393,0.43167c0.15568,0.0882 0.34659,0.08663 0.5008,-0.00411l0.24609,-0.14453v12.125c0.00003,0.27613 0.22387,0.49997 0.5,0.5h17c0.27613,-0.00003 0.49997,-0.22387 0.5,-0.5v-12.125l0.24609,0.14453c0.23839,0.14023 0.54532,0.06065 0.68555,-0.17773c0.14023,-0.23839 0.06065,-0.54532 -0.17773,-0.68555l-9.5,-5.58789c-0.07243,-0.04242 -0.15438,-0.06593 -0.23828,-0.06836c-0.01692,-0.00086 -0.03386,-0.00086 -0.05078,0zM12,3.08008l8,4.70703v12.21289h-4v-8.5c-0.00003,-0.27613 -0.22387,-0.49997 -0.5,-0.5h-7c-0.27613,0.00003 -0.49997,0.22387 -0.5,0.5v8.5h-4v-12.21289zM9,12h6v8h-6z"></path></g></g>
</svg>